/* XPM */
static char * icon_xpm[] = {
"128 128 9 1",
" 	c None",
".	c #FFFFFF",
"+	c #FDFDFD",
"@	c #F8F8F8",
"#	c #F9F9F9",
"$	c #FBFBFB",
"%	c #FAFAFA",
"&	c #FEFEFE",
"*	c #FCFCFC",
"                                                                                                                                ",
"                                                   ..............                                                               ",
"                                               .......................                                                          ",
"                                             ......+@@@@@@.@@@@@@@........                                                      ",
"                                            ....#@@@@@@@@@...@@@@@@@@@@$.....                                                   ",
"                                            ..@@@@@@@@@@@$..$@@@@@@@@@@@@@@%....                                                ",
"                                           ..@@@@@@@@@@@@@@@@@@@@@@@@@@@@@@@@@#...                                              ",
"                                           .#@#@@@@@@@@%&&&&&&&%@@@@@@@@@@@@@@@@#..                                             ",
"                                           .#@..@@@@@...............#@@@@@@@@@@@@@..                                            ",
"                                           .%@..@@@@...          ......#@@@@@@@@@@#..                                           ",
"                                           .%@.@*@@$..               .....@@@@@@.@@...                                          ",
"                                           .+@@@@@@$..                  ...&@@@@..@@...                                         ",
"                                           ..@@@$$.........               ...@@&..@@@..                                         ",
"                                            .......................        ...@@...@@...                                        ",
"                                           ....###%$**%#..................  ..#@@@@@@@..                                        ",
"                                          ...@@@@@@@@@@@@@@@@@@@@@@&..........%@@@@@@@..                                        ",
"                                        ...#@@@@@@@@@@@@@@@@@@@@@@@@@@@@@.......$@@@@@..                                        ",
"                                       ...@@@@@@@@@@@@@@@@@@@@@@@@@@@@@@@@@@@+.....@@@..                                        ",
"                                      ...@@@@@@@@@@@@@@@@@@@@@@@@@@@@@@@@@@@@@@@@...+...                                        ",
"                                     ..#@@@@@@@@@@@@@@@@@@@@@@@@@@@@@@@@@@@@@**@@@@....                                         ",
"                                    ..@@@@@@@@@@@@@@@@@@@@@@@@@@@@@@@@@@@@@@*....@@@...                                         ",
"                                   ..@@@@@@@@@**............*%@@@@@@@@@@@@@@@....@@@@...                                        ",
"                                   ..@@@@@........................@@@@@@@@@@.......@@@...                                       ",
"                                   ..&@.......@@@@@@@@@@@@@@@@@#.....&@@@@@@@......@@@%..                                       ",
"                                   .......@@@@@@@@@@@@@@@.%@@@@@@@@@......@@@@......@@@...                                      ",
"                                   ....@@@@@@@@@@@@@@@@@....@@@@@@@@@@@.....#@@@@...@@@@...                                     ",
"                                 ...$@@@@@@@@@@@@@@@@@@@..@@@@@@@@@@@@@@@@&....@@@@.@@@@@...                                    ",
"                               ....@@@@@@@@@@*...............@@@@@@@@@@@@@@@%....$@@@@@@@$..                                    ",
"                              ...@@@@@@@@@.......................&@@@@@@@@@@@@@....%@@@@@@..                                    ",
"                             ..@@@@@@@@@.....                  .......@@@@@@@@@@@....@@@@@...                                   ",
"                           ...@@@@@@@@....                         ......@@@@@@@@@@....@@@...                                   ",
"                          ...@@@@@@@....                              .....*@@@@@@@@@...*....                                   ",
"                         ...@@@@@@@...                                   .....@@@@@@@@........                                  ",
"                        ...@@.@@@...                                        ....@@@@@@@@........                                ",
"                        ..@@...@...                                           ....@@@@@. ...@@+..                               ",
"                       ..@@......                                               ...@@@@.. ...@@@...                             ",
"                      ..@@@@*...                                                 ....@....@@..@@@@...                           ",
"                     ..@@@@@@..                                                    ......$&@@..@@@@+..                          ",
"                    ..@@@@@@..                                                      ....@@@@@@..@@@@@..                         ",
"                    ..@@@@@..                                                         ..%@@@@@@..@@@@@..                        ",
"                   ..@@@@@..                                                           ..%@@@@@...@@@@@...                      ",
"                   .#@@@@@.                                                             ..%@@@@@..@@@@....                      ",
"                  ..@@@@@..                                                              ..@@@@@@..@@@*....                     ",
"                  .@@@@@+.                                                                ..@@@@@+..@@@#....                    ",
"                 ..@@@@@..                                                                 ..@@@@@..#@@@@@..                    ",
"                 . @@@@..                                                                  ..+@@@@@...@@.....                   ",
"                ..@@@@@.                                                                    ..@@@@@..&@@@@...                   ",
"                ..@@@@..                                                                     ..@@@@@...#@@*...                  ",
"               ..@@@@@.                                                                      ..@@@@@..%@@@@@..                  ",
"               ..@@@@..                                                                       ..@@@@@...@@@....                 ",
"               ..@@@@..                                                                       ..$@@@@..@@@@@@..                 ",
"               .@@@@..                                                                         ..@@@@*...+..+...                ",
"              ..@@@@..                                                                         ..@@@@@..@@@@@...                ",
"              ..@@@@..                                                                          ..@@@@......$#..                ",
"              .+@@@*.                                                                           ..@@@@#..@@@@@...               ",
"              .@@@@..                                                                           ..$@@@@..&@@#@@..               ",
"             ..@@@@..                                                                            ..@@@@...@@@@@@..              ",
"             ..@@@@..                                                                            ..@@@@%..@@@@@@..              ",
"             ..@@@%.                                                                              .%@@@@...+$@@@+.              ",
"             ..@@@..                                                                              ..@@@@...@@@@@@..             ",
"             .#@@@..                                                                              ..@@@@...@@@@@@..             ",
"             .#@@@..                                                                              ..@@@@@..@@@@@@..             ",
"             .@@@@..                                      ...                                     ..*@@@@..@@@@@@@.             ",
"             .@@.@..                                    .......                                    ..@@@@..@@@@@@@..            ",
"             .@@#...                                   .........                                   ..@@@@..@@@@@@@..            ",
"             .%@....                                  ...........                                  ..@@@@...@@@@@@..            ",
"             ..@....                                  ............                                 ..@@@@#..@@@@@@@.            ",
"             ..@....                                  ....   ......                                 .%@@@@..@@@@@@@.            ",
"             ..@@...                                  ....    .....                                 ..@@@@..@@@@@@@..           ",
"             ..@....                              ........    .....                                 ..@@@@..@@@@@@@..           ",
"             ..@#@@.                       ...............    .....                                 ..@@@@..#@@@@@@..           ",
"              .@@@@.                      .................   .....                                 ..@@@@..$@@@@@@%.           ",
"              .@@@@..                   ...........................                                 ..@@@@#.$@@@@@@#.           ",
"              .@@@@..                  ...........................                                  ..@@@@#..@@@@@@@.           ",
"              ..@@@%.                 ...........................                                   ..$@@@#..@@@@@@@.           ",
"              ..@@@@..               .................   .......                                    ...@.@...@@@@@@@.           ",
"               .@@@@..              .................                                                ..@.....@@@@@@@.           ",
"               ..@@@..             .................                                                 ..@..%..@@@@@@@.           ",
"               ..@@@@..          .................                                                   ..@..%..@@@@@@@.           ",
"                .@@@@..         .................                                                   ...@@*@..@@@@@@@.           ",
"                .$@@@..        .................                                                    ..@@@@@..@@@@@@@.           ",
"                ..@@@@..      ........                                                              ..@@@@#..@@@@@@#.           ",
"                 .@@@@..                                                                            ..@@@@$..@@@@@@%.           ",
"                 ..@@@..                                                                            ..@@@@#..@@@@@@..           ",
"                 ..@@@@..                                                                           ..@@@@#.&@@@@@@..           ",
"                  .@@@@..                                                                           ..@@@@..$@@@@@@..           ",
"                  ..@@@@..                                                                          .$@@@@..%@@@@@@..           ",
"                  ..@@@@..                                                                         ..@@@@@..@@@@@@@..           ",
"                   ..@@@$..                                                                        ..@@@@@..@@@@@@&..           ",
"                   ..@@@@..                                                                        ..@@@@@..@@@@@@...           ",
"                    ..@@@@..                                                                       .@@@@@...@@@@@@..            ",
"                    ..@@@@..                                                                      ..@@@@@..@@@@@@$..            ",
"                     ..@@@@..                                                                     ..@@@@@..@@@@@@...            ",
"                     ..%@@@..                                                                    ..@@@@@$..@@@@@@..             ",
"                      ..@@@@..                                                                   ..@@@@@..%@@@@@&..             ",
"                      ...@@@@..                                                                 ..@@@@@@..@@@@@@...             ",
"                       ..@@@@@..                                                                ..@@@@@...@@@@@@..              ",
"                        ..@@@@@..                                                              ..@@@@@@..@@@@@@...              ",
"                        ...@@@@#..                                                             .+@@@@@&..@@@@@$..               ",
"                         ..@@@@@@..                                                           ..@@@@@@..$@@@@....               ",
"                          ..@@@@@@..                                                         ..@@@@@@...@*+.....                ",
"                           ..@@@@@@..                                                        ..@@@@@@..*&*$$...                 ",
"                            ..@@@@%...                                                      ..@@@@@@..*@@@@....                 ",
"                             ..@@@@.....                                                   ..@@@@@@*..@@@@@%..                  ",
"                            ....@@..@.....                                               ...@@@@@@@..@@@@@#...                  ",
"                           ...@..@@.#@@@@...                                            ...@@@@@@@..#@@......                   ",
"                          ...@@@%.$@%.@@@@@...                                         ...@@@@@@@..@@@@@@*..                    ",
"                          ..@@@@@@..@@@@@@@@@....                                    ....@@@@@@@..@@@@.....                     ",
"                         ..@@@@@@@@%..@@@@@@@@@......                              ....@@@@@@@@..@@@@@@@...                     ",
"                        ..@@@@@@@@@@@...@@@@@@@@@@......                        ......@@@@@@@@..@@@@@.....                      ",
"                       ..@@@@@@@@@@@@.....@@@@@@@@@@@.........              ........@@@@@@@@@..@@@@@.....                       ",
"                      ..+@@@@@@@@@@@@..  ...@@@@@@@@@@@@%..........................@@@@@@@@..@@@@@*.....                        ",
"                      ..@@@@@@@@@@@@@..    ....@@@@@@@@@@@@@@.................@@@...@@@@@@..@@@@+......                         ",
"                      ..@@@@@@@@@@@@..        ....@@@@@@@@@@@@@@@@@@@@@@@@@@@@@@.....@@@...@@@@@.....                           ",
"                      ..@@@@@@@@@@@@..          ......@@@@@@@@@@@@@@@@@@@@@@@@@....#@@...@@@@%.....                             ",
"                       ...@@@@@@@@@$..             .......#@@@@@@@@@@@@@@@@@@@@@@. ....&@@.......                               ",
"                        ........@@&..                  ........@@@@@@@@@@@@@@@@*......&$.......                                 ",
"                          ...........                       .............................%@@@@..                                ",
"                              .....                              ....................@@@@@@@@@...                               ",
"                                                                                  ..@@@@@@@@@@@..                               ",
"                                                                                   .@@@@@@@@@@@...                              ",
"                                                                                   .&@@@@@@@@@@@..                              ",
"                                                                                   ..@@@@@@@@@@@...                             ",
"                                                                                   ..@@@@@@@@@@@@..                             ",
"                                                                                    .*@@@@@@@@@@@#..                            ",
"                                                                                    ...@@@@@@@@@@@..                            ",
"                                                                                     .....++@@@@@@..                            ",
"                                                                                       .............                            "};
